<svg xmlns="http://www.w3.org/2000/svg" viewBox="0 0 200 200">
  <rect width="200" height="200" fill="#0f172a" opacity="0"/>

  <!-- Lab table -->
  <rect x="30" y="130" width="140" height="15" fill="#334155" stroke="#475569" stroke-width="2"/>
  <rect x="40" y="145" width="10" height="40" fill="#1e293b" stroke="#475569" stroke-width="2"/>
  <rect x="150" y="145" width="10" height="40" fill="#1e293b" stroke="#475569" stroke-width="2"/>

  <!-- Robot arm -->
  <line x1="100" y1="130" x2="100" y2="80" stroke="#475569" stroke-width="8" stroke-linecap="round"/>
  <line x1="100" y1="80" x2="60" y2="60" stroke="#475569" stroke-width="6" stroke-linecap="round"/>
  <line x1="60" y1="60" x2="40" y2="80" stroke="#475569" stroke-width="6" stroke-linecap="round"/>

  <!-- Robot hand gripper -->
  <rect x="40" y="75" width="8" height="10" rx="2" fill="#1e293b" stroke="#475569" stroke-width="1"/>
  <rect x="48" y="75" width="8" height="10" rx="2" fill="#1e293b" stroke="#475569" stroke-width="1"/>

  <!-- Lab equipment -->
  <rect x="120" y="110" width="30" height="20" rx="5" fill="#1e293b" stroke="#475569" stroke-width="2"/>
  <circle cx="135" cy="120" r="6" stroke="#06b6d4" stroke-width="2" fill="none" opacity="0.8"/>

  <rect x="150" y="100" width="20" height="30" rx="5" fill="#334155" stroke="#475569" stroke-width="2"/>
  <rect x="155" y="105" width="10" height="10" rx="2" fill="#8b5cf6" opacity="0.7"/>

  <!-- Beaker -->
  <rect x="60" y="100" width="15" height="25" rx="7" fill="none" stroke="#8b5cf6" stroke-width="2" opacity="0.5"/>
  <rect x="57" y="120" width="20" height="8" rx="3" fill="#8b5cf6" opacity="0.2"/>

  <!-- Circuit board -->
  <rect x="70" y="135" width="40" height="20" rx="3" fill="#334155" stroke="#475569" stroke-width="1"/>
  <circle cx="75" cy="140" r="2" fill="#06b6d4"/>
  <circle cx="80" cy="145" r="2" fill="#ec4899"/>
  <circle cx="85" cy="140" r="2" fill="#8b5cf6"/>
  <circle cx="90" cy="145" r="2" fill="#06b6d4"/>
  <circle cx="95" cy="140" r="2" fill="#ec4899"/>

  <!-- Light effects -->
  <circle cx="100" cy="80" r="10" fill="#8b5cf6" opacity="0.1"/>
  <circle cx="135" cy="120" r="8" fill="#06b6d4" opacity="0.1"/>
</svg>