<svg id="visual" viewBox="0 0 900 600" width="900" height="600" xmlns="http://www.w3.org/2000/svg" xmlns:xlink="http://www.w3.org/1999/xlink" version="1.1"><rect x="0" y="0" width="900" height="600" fill="#001220"></rect><defs><linearGradient id="grad1_0" x1="33.3%" y1="0%" x2="100%" y2="100%"><stop offset="20%" stop-color="#001220" stop-opacity="1"></stop><stop offset="80%" stop-color="#001220" stop-opacity="1"></stop></linearGradient></defs><defs><linearGradient id="grad2_0" x1="0%" y1="0%" x2="66.7%" y2="100%"><stop offset="20%" stop-color="#001220" stop-opacity="1"></stop><stop offset="80%" stop-color="#001220" stop-opacity="1"></stop></linearGradient></defs><g transform="translate(900, 0)"><path d="M0 486.7C-62.6 479.1 -125.2 471.4 -186.3 449.7C-247.3 428 -306.8 392.4 -342.9 342.9C-379.1 293.5 -392 230.1 -412.1 170.7C-432.1 111.2 -459.4 55.6 -486.7 0L0 0Z" fill="#FBAE3C"></path></g><g transform="translate(0, 600)"><path d="M0 -486.7C62.8 -475.6 125.5 -464.4 182.5 -440.7C239.5 -416.9 290.8 -380.6 337.3 -337.3C383.8 -294 425.6 -243.7 449.7 -186.3C473.8 -128.9 480.3 -64.4 486.7 0L0 0Z" fill="#FBAE3C"></path></g></svg>