<svg xmlns="http://www.w3.org/2000/svg" viewBox="0 0 500 500"><g id="freepik--background-complete--inject-63"><path d="M484.55,117.54c0,.15-17.25.26-38.52.26s-38.52-.11-38.52-.26,17.24-.26,38.52-.26S484.55,117.4,484.55,117.54Z" style="fill:#e0e0e0"></path><path d="M335,452.94s-.17-.12-.47-.38l-1.36-1.15L328,446.92l-19-16.56-62.55-54.79-53.25-46.81-.07-.06v-.09c0-14.24.07-25.91.09-34,0-4.05,0-7.21,0-9.38,0-1.06,0-1.88,0-2.45s0-.84,0-.84,0,.29,0,.84,0,1.39,0,2.45c0,2.17,0,5.33,0,9.38,0,8.13.05,19.8.09,34l-.07-.16,53.33,46.73,62.44,54.9,18.89,16.69,5.12,4.56,1.32,1.19Z" style="fill:#e0e0e0"></path><circle cx="250.33" cy="228.37" r="1.99" style="fill:#e0e0e0"></circle><circle cx="250.33" cy="261.67" r="1.99" style="fill:#e0e0e0"></circle><path d="M81.19,278.26s.31,0,.91,0l2.67,0,10.35,0,38.59-.07L265.87,278l-.25.25c0-18.47,0-38.11,0-58.32,0-69.29.06-131.8.08-175.7l.18.18-49.36-.08-13.33-.05-3.46,0-1.17,0s.4,0,1.17,0l3.46,0,13.33,0,49.36-.08h.18v.18c0,43.9.05,106.41.08,175.7v58.57h-.26l-132.16-.09-38.59-.07-10.35-.05-2.67,0Z" style="fill:#e0e0e0"></path><path d="M126.69,475.64s0-.39,0-1.15,0-1.9,0-3.38c0-3,0-7.37-.06-13,0-11.29,0-27.6-.08-47.73l.06.14L81,365.05,81,365v-.1c0-20.94,0-43.89,0-67.84,0-50.27,0-96.16.07-130.51l.11.17L37,145.53l-12-5.79-3.12-1.53c-.71-.34-1.06-.53-1.06-.53s.37.15,1.08.48L25,139.63l12.06,5.71,44.21,21,.11.06v.12c0,34.35,0,80.24.06,130.51,0,23.95,0,46.9,0,67.84l-.08-.17,45.47,45.53,0,.06v.08c0,20.13-.06,36.44-.08,47.73,0,5.63,0,10,0,13,0,1.48,0,2.61,0,3.38S126.69,475.64,126.69,475.64Z" style="fill:#e0e0e0"></path><circle cx="113.51" cy="428.01" r="1.99" style="fill:#e0e0e0"></circle><circle cx="113.51" cy="461.31" r="1.99" style="fill:#e0e0e0"></circle><circle cx="65.1" cy="312.29" r="1.99" style="fill:#e0e0e0"></circle><circle cx="65.1" cy="345.6" r="1.99" style="fill:#e0e0e0"></circle><path d="M67.09,245a2,2,0,1,1-2-2A2,2,0,0,1,67.09,245Z" style="fill:#e0e0e0"></path><circle cx="65.1" cy="278.33" r="1.99" style="fill:#e0e0e0"></circle><circle cx="65.1" cy="177.75" r="1.99" style="fill:#e0e0e0"></circle><circle cx="65.1" cy="211.06" r="1.99" style="fill:#e0e0e0"></circle><path d="M362,6.78s0,.39,0,1.15,0,1.91,0,3.38c0,3,0,7.37.05,13,0,11.29.05,27.61.09,47.73l-.06-.13c12.95,12.92,28.46,28.4,45.54,45.46l.07.07v.1c0,21,0,43.89,0,67.84,0,50.28,0,96.16-.07,130.51l-.11-.17,44.13,21.17,12,5.8,3.12,1.52c.71.34,1.06.53,1.06.53s-.37-.15-1.08-.48l-3.15-1.47-12.06-5.7-44.21-21-.11-.05v-.13c0-34.35,0-80.23-.06-130.51,0-23.95,0-46.89,0-67.84l.07.18L361.87,72.18l-.06-.06V72c0-20.12.07-36.44.09-47.73,0-5.63,0-10,.05-13,0-1.47,0-2.6,0-3.38S362,6.78,362,6.78Z" style="fill:#e0e0e0"></path><circle cx="375.19" cy="54.42" r="1.99" style="fill:#e0e0e0"></circle><path d="M373.19,21.11a2,2,0,1,1,2,2A2,2,0,0,1,373.19,21.11Z" style="fill:#e0e0e0"></path><circle cx="279.64" cy="94" r="1.99" style="fill:#e0e0e0"></circle><path d="M277.65,60.69a2,2,0,1,1,2,2A2,2,0,0,1,277.65,60.69Z" style="fill:#e0e0e0"></path><circle cx="279.64" cy="153.48" r="1.99" style="fill:#e0e0e0"></circle><path d="M277.65,120.18a2,2,0,1,1,2,2A2,2,0,0,1,277.65,120.18Z" style="fill:#e0e0e0"></path><path d="M421.61,170.13a2,2,0,1,1,2,2A2,2,0,0,1,421.61,170.13Z" style="fill:#e0e0e0"></path><path d="M421.61,136.83a2,2,0,1,1,2,2A2,2,0,0,1,421.61,136.83Z" style="fill:#e0e0e0"></path><path d="M421.61,237.4a2,2,0,1,1,2,2A2,2,0,0,1,421.61,237.4Z" style="fill:#e0e0e0"></path><path d="M421.61,204.1a2,2,0,1,1,2,2A2,2,0,0,1,421.61,204.1Z" style="fill:#e0e0e0"></path><path d="M421.61,304.67a2,2,0,1,1,2,2A2,2,0,0,1,421.61,304.67Z" style="fill:#e0e0e0"></path><path d="M421.61,271.37a2,2,0,1,1,2,2A2,2,0,0,1,421.61,271.37Z" style="fill:#e0e0e0"></path><circle cx="182.81" cy="25.7" r="1.99" style="fill:#e0e0e0"></circle><path d="M184.8,59a2,2,0,1,1-2-2A2,2,0,0,1,184.8,59Z" style="fill:#e0e0e0"></path><path d="M54.25,89.51a2,2,0,1,1-1-2.61A2,2,0,0,1,54.25,89.51Z" style="fill:#e0e0e0"></path><path d="M41,120.08a2,2,0,1,1-1-2.62A2,2,0,0,1,41,120.08Z" style="fill:#e0e0e0"></path><path d="M197.33,7.27s0,.39,0,1.14,0,1.89,0,3.35c0,2.94,0,7.24.06,12.71,0,11,0,26.64.09,45.51v.22h-.22l-71.35,0-48.58,0,.22-.14c-10.64,22.67-19.73,42-26.15,55.7-3.23,6.82-5.78,12.23-7.54,16l-2,4.23c-.22.47-.4.83-.53,1.09s-.19.36-.19.36,0-.13.16-.38.28-.63.49-1.1c.45-1,1.11-2.42,2-4.27l7.42-16c6.38-13.72,15.41-33.08,26-55.78l.06-.14h.16l48.58,0,71.35,0-.22.22c0-18.87.07-34.54.09-45.51,0-5.47.05-9.77.06-12.71,0-1.46,0-2.57,0-3.35S197.33,7.27,197.33,7.27Z" style="fill:#e0e0e0"></path><path d="M195.86,66.75c-.11.11-.39,0-.64-.26s-.37-.54-.26-.64.38,0,.63.27S196,66.65,195.86,66.75Z" style="fill:#e0e0e0"></path><path d="M202.27,317.7a2,2,0,1,1,2,2A2,2,0,0,1,202.27,317.7Z" style="fill:#e0e0e0"></path><path d="M202.27,290.79a2,2,0,1,1,2,2A2,2,0,0,1,202.27,290.79Z" style="fill:#e0e0e0"></path><path d="M437.16,382.93a2,2,0,1,1,2,2A2,2,0,0,1,437.16,382.93Z" style="fill:#e0e0e0"></path><path d="M437.16,356a2,2,0,1,1,2,2A2,2,0,0,1,437.16,356Z" style="fill:#e0e0e0"></path><path d="M355.1,452.86a2,2,0,1,1-1.17,2.56A2,2,0,0,1,355.1,452.86Z" style="fill:#e0e0e0"></path><path d="M380.31,443.45a2,2,0,1,1-1.17,2.56A2,2,0,0,1,380.31,443.45Z" style="fill:#e0e0e0"></path><path d="M403.78,433.27a2,2,0,1,1-1.17,2.57A2,2,0,0,1,403.78,433.27Z" style="fill:#e0e0e0"></path><path d="M429,423.86a2,2,0,1,1-1.17,2.56A2,2,0,0,1,429,423.86Z" style="fill:#e0e0e0"></path><path d="M333.5,471.1s0-.09,0-.28,0-.47,0-.83c0-.75,0-1.84,0-3.24,0-2.87,0-7-.07-12.34v-.09l.09,0,81.22-35.52,33.19-14.45-.15.22c.14-20.2.27-37.48.35-49.73.06-6.1.11-10.95.15-14.3,0-1.64,0-2.92.06-3.8,0-.42,0-.75,0-1a1.39,1.39,0,0,1,0-.33s0,.11,0,.33,0,.57,0,1c0,.88,0,2.16,0,3.8,0,3.35,0,8.2,0,14.3,0,12.25-.09,29.53-.16,49.74v.16l-.15.06-33.18,14.47-81.31,35.31.08-.13c0,5.3-.05,9.47-.06,12.34,0,1.4,0,2.49,0,3.24,0,.36,0,.63,0,.83A.84.84,0,0,1,333.5,471.1Z" style="fill:#e0e0e0"></path><path d="M363.6,44.24c0,.14-22.09.26-49.34.26s-49.33-.12-49.33-.26S287,44,314.26,44,363.6,44.1,363.6,44.24Z" style="fill:#e0e0e0"></path><path d="M406.47,168.14c0,.14-31.48.26-70.3.26s-70.3-.12-70.3-.26,31.47-.26,70.3-.26S406.47,168,406.47,168.14Z" style="fill:#e0e0e0"></path><path d="M265.87,209.06a2.3,2.3,0,0,1-.43,0l-1.27,0-4.9,0-18,.09-59.38.07h-8.37l.24-.15c-8.56,19.45-16.16,36.74-21.64,49.2L145.62,273c-.76,1.7-1.36,3-1.78,4l-.47,1a2.64,2.64,0,0,1-.18.34s0-.13.13-.36l.43-1,1.7-4c1.5-3.48,3.67-8.49,6.35-14.71,5.45-12.48,13-29.79,21.49-49.27l.07-.16h8.54l59.38.08,18,.08,4.9,0,1.27,0Z" style="fill:#e0e0e0"></path></g><g id="freepik--Floor--inject-63"><path d="M450.89,480c0,.15-89.95.26-200.88.26s-200.9-.11-200.9-.26,89.93-.26,200.9-.26S450.89,479.84,450.89,480Z" style="fill:#263238"></path></g><g id="freepik--Lines--inject-63"><path d="M302.42,107.45c-.11,0-.1-2-.65-5.3a40.37,40.37,0,0,0-1.37-5.61A43.49,43.49,0,0,0,297.64,90a45,45,0,0,0-3.84-5.93,42.15,42.15,0,0,0-3.88-4.29c-2.39-2.27-4.1-3.42-4-3.5a7,7,0,0,1,1.21.77,16.7,16.7,0,0,1,1.36,1c.51.42,1.11.87,1.71,1.45a36.76,36.76,0,0,1,4,4.26,41.27,41.27,0,0,1,3.93,6,41.75,41.75,0,0,1,2.75,6.61,36.83,36.83,0,0,1,1.29,5.7c.14.82.18,1.57.24,2.23a15.66,15.66,0,0,1,.08,1.69A7,7,0,0,1,302.42,107.45Z" style="fill:#263238"></path><path d="M317,114.34a2.43,2.43,0,0,1,0-.62c0-.46.07-1,.12-1.78,0-.39.06-.81.09-1.28s0-1,0-1.52c0-1.1.05-2.35-.1-3.72-.05-.69-.1-1.41-.16-2.15s-.21-1.52-.31-2.33c-.18-1.61-.6-3.29-1-5.07a60.11,60.11,0,0,0-4-11.1,60.35,60.35,0,0,0-6.33-10c-1.18-1.39-2.26-2.74-3.42-3.87-.58-.57-1.09-1.16-1.65-1.67l-1.62-1.43a35.77,35.77,0,0,0-2.88-2.35c-.44-.33-.83-.65-1.22-.92l-1.07-.71-1.47-1a3.45,3.45,0,0,1-.5-.38,2.19,2.19,0,0,1,.55.29l1.53.91,1.1.67c.4.26.8.58,1.25.9a32.62,32.62,0,0,1,2.95,2.3L300.47,69c.57.5,1.1,1.09,1.68,1.66a50.05,50.05,0,0,1,3.49,3.87,58.62,58.62,0,0,1,6.43,10.05,58.23,58.23,0,0,1,4,11.22,52,52,0,0,1,.95,5.12c.09.81.23,1.59.28,2.35s.09,1.48.13,2.17a36.2,36.2,0,0,1,0,3.74c0,.55,0,1.07-.05,1.54s-.1.89-.14,1.28c-.09.73-.16,1.31-.21,1.77A2.13,2.13,0,0,1,317,114.34Z" style="fill:#263238"></path><path d="M177.43,165.09c.1,0,.86,1.87,2.56,4.69a40.49,40.49,0,0,0,3.36,4.71,40,40,0,0,0,10.73,9.11,38.92,38.92,0,0,0,5.19,2.55c3,1.23,5.07,1.66,5,1.77a7.92,7.92,0,0,1-1.42-.27,15.25,15.25,0,0,1-1.63-.44c-.63-.2-1.36-.4-2.13-.72a36.55,36.55,0,0,1-5.29-2.47,42.23,42.23,0,0,1-5.87-4.11,41.14,41.14,0,0,1-5-5.12,36.63,36.63,0,0,1-3.3-4.82c-.44-.71-.75-1.39-1.05-2a15.46,15.46,0,0,1-.7-1.54A8.12,8.12,0,0,1,177.43,165.09Z" style="fill:#263238"></path><path d="M161.36,164.07a4.38,4.38,0,0,1,.22.58c.15.44.33,1,.56,1.69.11.38.24.79.38,1.23s.36.91.56,1.42c.42,1,.82,2.19,1.46,3.42l1,1.94c.33.68.75,1.34,1.15,2,.76,1.43,1.77,2.84,2.78,4.35a54.94,54.94,0,0,0,17.44,15.75,51.24,51.24,0,0,0,4.61,2.33c.75.33,1.45.68,2.15.94l2,.74a34.9,34.9,0,0,0,3.55,1.11c.53.15,1,.3,1.47.41l1.26.26,1.73.38a2.21,2.21,0,0,1,.6.17,3.11,3.11,0,0,1-.61-.06l-1.76-.29-1.28-.22c-.46-.09-1-.23-1.49-.37a34.42,34.42,0,0,1-3.59-1l-2.06-.71c-.71-.26-1.42-.61-2.17-.92a50.33,50.33,0,0,1-4.67-2.31A53.61,53.61,0,0,1,169,181c-1-1.53-2-3-2.77-4.41-.39-.72-.81-1.39-1.13-2.07l-.92-2a32.33,32.33,0,0,1-1.4-3.47c-.19-.52-.38-1-.52-1.44s-.24-.87-.35-1.25c-.19-.7-.34-1.27-.46-1.72A2.25,2.25,0,0,1,161.36,164.07Z" style="fill:#263238"></path></g><g id="freepik--robot-arm--inject-63"><rect x="137.56" y="463.14" width="16.08" height="8.16" style="fill:#e0e0e0"></rect><rect x="272.22" y="463.14" width="16.08" height="8.16" style="fill:#e0e0e0"></rect><path d="M166,402.16a15.78,15.78,0,0,0-11.7,5.81,22,22,0,0,0-4.93,14c-.1,5.73,1.4,11.4,3.39,16.72a71.81,71.81,0,0,0,19,28c.6.54,1.48-.34.89-.88a71.1,71.1,0,0,1-17.35-24.18c-4-9.2-7.43-21.36-1.72-30.59,2.68-4.33,7.21-7.63,12.43-7.67a.63.63,0,0,0,0-1.25Z" style="fill:#263238"></path><polygon points="249.31 448.95 253.9 430.08 173.82 424.31 177.82 450.7 209.36 465.65 249.31 448.95" style="fill:#263238"></polygon><polygon points="244.54 345.51 230.04 350.78 262.14 404.54 277.75 390.5 273.47 363.81 244.54 345.51" style="fill:#263238"></polygon><circle cx="214.47" cy="396.59" r="53.42" transform="translate(-209.17 550.9) rotate(-81.61)" style="fill:#e0e0e0"></circle><path d="M194.63,364.61l-.49.37-1.46,1-1.08.76c-.39.3-.78.66-1.22,1L189,369a19.23,19.23,0,0,0-1.49,1.5,36.06,36.06,0,0,0-6.33,8.83,37.56,37.56,0,0,0-4,13.74l-.18,2c0,.69,0,1.38,0,2.08s0,1.4.06,2.11.15,1.43.23,2.15l.12,1.1c.08.36.15.72.23,1.08.15.73.3,1.46.45,2.21s.45,1.45.66,2.19a19.89,19.89,0,0,0,.76,2.21,34.5,34.5,0,0,0,2,4.32c.4.71.76,1.44,1.21,2.14l1.41,2c.25.34.47.7.73,1l.82,1c.56.64,1.09,1.31,1.68,1.94a41.45,41.45,0,0,0,8.29,6.52c.78.44,1.6.83,2.41,1.25.41.2.81.44,1.24.6l1.28.51a44.06,44.06,0,0,0,5.32,1.72,42,42,0,0,0,5.63.84l1.44.13h2.9a8.82,8.82,0,0,0,1.45-.08l2.93-.3,2.9-.6a37.18,37.18,0,0,0,20.14-12.44l1.83-2.33,1.59-2.48a9.77,9.77,0,0,0,.72-1.26l.66-1.3.65-1.29.53-1.34a41.3,41.3,0,0,0,1.77-5.42,40.48,40.48,0,0,0,.84-5.52l.13-1.38c0-.45,0-.91,0-1.37,0-.91,0-1.82,0-2.72a38.42,38.42,0,0,0-.74-5.3,39.65,39.65,0,0,0-1.38-5c-.29-.81-.66-1.58-1-2.37l-.49-1.16c-.18-.39-.4-.74-.59-1.11l-1.2-2.19c-.42-.7-.92-1.36-1.37-2a34.4,34.4,0,0,0-3-3.75,18.39,18.39,0,0,0-1.63-1.67c-.57-.52-1.09-1.08-1.67-1.57l-1.77-1.39-.87-.69-.92-.6-1.82-1.17c-.59-.39-1.25-.66-1.87-1s-1.23-.64-1.85-.93l-1.88-.75a37.51,37.51,0,0,0-14.1-2.53,35.66,35.66,0,0,0-10.73,1.7,20.62,20.62,0,0,0-2,.66l-1.72.72c-.53.23-1,.41-1.46.62l-1.17.63-1.59.84-.55.28s.18-.12.53-.32l1.56-.89,1.16-.65c.43-.22.93-.42,1.46-.65l1.72-.75a20.51,20.51,0,0,1,2-.68,36,36,0,0,1,10.78-1.81,37.73,37.73,0,0,1,14.24,2.49l1.91.74c.62.29,1.24.62,1.87.94s1.29.6,1.89,1l1.84,1.18.94.6.88.69,1.79,1.4c.59.49,1.12,1.06,1.69,1.59a18.82,18.82,0,0,1,1.66,1.68,35.15,35.15,0,0,1,3,3.78c.45.69,1,1.35,1.39,2.06l1.21,2.2c.2.38.43.74.6,1.13l.51,1.18c.32.79.69,1.57,1,2.39a40.63,40.63,0,0,1,1.41,5.09,41.08,41.08,0,0,1,.76,5.37c.05.91,0,1.83.05,2.76,0,.46,0,.92,0,1.39l-.12,1.39a41.89,41.89,0,0,1-.85,5.6,44.43,44.43,0,0,1-1.78,5.49l-.54,1.36-.66,1.31-.67,1.31a9.1,9.1,0,0,1-.73,1.29l-1.6,2.51-1.86,2.36a37.67,37.67,0,0,1-20.43,12.62l-2.94.6-3,.31a10.34,10.34,0,0,1-1.47.07h-3l-1.45-.13A34.68,34.68,0,0,1,200.37,432l-1.3-.51c-.44-.17-.84-.42-1.25-.62-.82-.43-1.66-.82-2.45-1.27a40.48,40.48,0,0,1-4.46-3.08A41.46,41.46,0,0,1,187,423c-.59-.63-1.13-1.31-1.69-2l-.83-1c-.27-.33-.49-.69-.74-1L182.31,417c-.45-.71-.82-1.45-1.22-2.16a35.45,35.45,0,0,1-2-4.39,18.32,18.32,0,0,1-.76-2.23c-.22-.75-.48-1.48-.66-2.22s-.3-1.5-.45-2.23c-.08-.37-.15-.74-.23-1.1l-.12-1.11c-.07-.73-.15-1.45-.22-2.17s0-1.43-.06-2.14,0-1.4,0-2.09l.18-2a37.54,37.54,0,0,1,4.16-13.85,35.76,35.76,0,0,1,6.43-8.83,19.19,19.19,0,0,1,1.52-1.49l1.43-1.21c.45-.36.85-.72,1.24-1l1.1-.75,1.49-1C194.45,364.71,194.63,364.61,194.63,364.61Z" style="fill:#263238"></path><circle cx="214.47" cy="396.59" r="14.75" transform="translate(-44.7 27.65) rotate(-6.68)" style="fill:#263238"></circle><circle cx="214.47" cy="396.59" r="10.59" transform="translate(-6.3 3.47) rotate(-0.91)" style="fill:#FF725E"></circle><path d="M176.83,393.65a2.71,2.71,0,0,1-.62.13l-1.8.26-6.64.86.16-.17a43,43,0,0,0,3.76,20.1,62.31,62.31,0,0,0,13.3,19l.11.11-.1.11-3.09,3.61-.84.95c-.2.21-.3.31-.32.3a2.2,2.2,0,0,1,.25-.36l.77-1,3-3.7v.22a55.25,55.25,0,0,1-6.79-7.59A57.19,57.19,0,0,1,171.21,415a42.08,42.08,0,0,1-3.65-20.33l0-.16h.15l6.65-.7,1.82-.16A2.74,2.74,0,0,1,176.83,393.65Z" style="fill:#263238"></path><path d="M183.47,353.39a1.92,1.92,0,0,1,.3.41l.81,1.22,3,4.66-.23,0a53.82,53.82,0,0,1,10.35-5.82,51.11,51.11,0,0,1,7.08-2.3,45.12,45.12,0,0,1,8.07-1.1,45.62,45.62,0,0,1,15.76,2.14,43,43,0,0,1,10.87,5.14l.12.09-.08.12-2.81,4.3-.76,1.13a2.1,2.1,0,0,1-.29.37,1.91,1.91,0,0,1,.22-.42l.69-1.17c.66-1.06,1.56-2.53,2.69-4.37l0,.21a44.42,44.42,0,0,0-10.83-5,45.08,45.08,0,0,0-23.57-1,51.64,51.64,0,0,0-7,2.24,56.47,56.47,0,0,0-10.35,5.65l-.14.1-.08-.15-2.85-4.74-.73-1.27A2.73,2.73,0,0,1,183.47,353.39Z" style="fill:#263238"></path><path d="M266.34,386.08a2,2,0,0,1-.43.16l-1.25.41-4.75,1.44.1-.19a38.56,38.56,0,0,1,1.21,11.71,42.39,42.39,0,0,1-3.73,15.14A58.71,58.71,0,0,1,242,435.07l-.13.1-.1-.11-4.26-4.49-1.12-1.22a2.71,2.71,0,0,1-.36-.44,2.78,2.78,0,0,1,.43.38l1.19,1.15,4.36,4.38h-.23a58.94,58.94,0,0,0,7.76-8.1,56.93,56.93,0,0,0,7.5-12.17,42.38,42.38,0,0,0,3.74-15,39.6,39.6,0,0,0-1-11.6l0-.15.14,0,4.79-1.3,1.28-.33A1.37,1.37,0,0,1,266.34,386.08Z" style="fill:#263238"></path><path d="M170.17,386.77l-1-.15c0-.12,1.88-11.5,9.58-19.83l.74.67C172,375.58,170.19,386.66,170.17,386.77Z" style="fill:#FF725E"></path><path d="M230.06,435.86a2.27,2.27,0,1,1,.6,3.16A2.28,2.28,0,0,1,230.06,435.86Z" style="fill:#FF725E"></path><path d="M222.42,438.36a2.27,2.27,0,1,1,.6,3.16A2.28,2.28,0,0,1,222.42,438.36Z" style="fill:#FF725E"></path><path d="M214.23,439.53a2.27,2.27,0,1,1,.6,3.15A2.27,2.27,0,0,1,214.23,439.53Z" style="fill:#FF725E"></path><rect x="131.93" y="471.31" width="158.98" height="8.68" style="fill:#263238"></rect><path d="M158.57,475.64l10.31-37.07s14.49,19.15,43.21,18.54,47.63-18.54,47.63-18.54l9.2,37.07Z" style="fill:#263238"></path><path d="M290.9,471.31c0,.14-35.5.26-79.28.26s-79.28-.12-79.28-.26,35.49-.26,79.28-.26S290.9,471.16,290.9,471.31Z" style="fill:#455a64"></path><path d="M259.72,438.57a1.24,1.24,0,0,1-.16.21l-.51.57c-.47.49-1.09,1.28-2,2.14a48.12,48.12,0,0,1-8.56,6.65,60.23,60.23,0,0,1-14.7,6.45,78.06,78.06,0,0,1-9.28,2.06,89.12,89.12,0,0,1-10.16.94A62.53,62.53,0,0,1,194.83,455a62.1,62.1,0,0,1-14.7-6.48,58.86,58.86,0,0,1-8.74-6.4c-1-.82-1.66-1.56-2.15-2l-.54-.55a1,1,0,0,1-.17-.19s.07,0,.2.16l.58.5c.52.43,1.21,1.14,2.21,1.94a63.12,63.12,0,0,0,8.8,6.23,66.46,66.46,0,0,0,6.62,3.42,67.5,67.5,0,0,0,8,2.92,62.81,62.81,0,0,0,19.33,2.51,87.88,87.88,0,0,0,10.1-.93,79.12,79.12,0,0,0,9.22-2,60.79,60.79,0,0,0,14.65-6.31,50.53,50.53,0,0,0,8.61-6.48c1-.83,1.6-1.6,2.09-2.06l.55-.53A1.24,1.24,0,0,1,259.72,438.57Z" style="fill:#455a64"></path><path d="M308.73,293.73c-3.43,3.38-8.52,3.39-13,3.62-4.13.21-9.23.7-12,4.25s-.07,7.49,3.74,8.56c4.51,1.27,9-.93,12.91-3,4.5-2.44,10.43-5.53,15.21-1.94.64.48,1.26-.6.63-1.08-3.06-2.3-7.2-2.12-10.65-.87-4.27,1.54-7.91,4.54-12.35,5.63a9.52,9.52,0,0,1-7.09-.61c-2.24-1.32-3-3.84-1.36-6,2.9-3.67,8.59-3.59,12.81-3.79s8.84-.76,12-3.9a.63.63,0,0,0-.89-.88Z" style="fill:#263238"></path><path d="M293.22,381c8.42,6.75,19.94,7.9,30.09,4.89,10.65-3.17,19.12-11,25-20.24a75.48,75.48,0,0,0,7.95-17.38c.25-.76-1-1.09-1.21-.33-3.28,10.25-8.48,20.16-16.41,27.58-7.66,7.15-17.84,11.33-28.4,10.63a28.72,28.72,0,0,1-16.12-6c-.62-.5-1.51.38-.88.88Z" style="fill:#263238"></path><path d="M303.19,372a45.06,45.06,0,0,0,34,6.85,44.42,44.42,0,0,0,34.31-35.47c.14-.78-1.06-1.12-1.2-.33a43.72,43.72,0,0,1-16.47,26.9,42.42,42.42,0,0,1-32,8,43,43,0,0,1-18.07-7.07c-.67-.46-1.29.62-.63,1.08Z" style="fill:#263238"></path><polygon points="306.73 289.65 312.19 304.25 367.93 271.95 353.38 256.24 325.7 260.55 306.73 289.65" style="fill:#263238"></polygon><polygon points="337.3 356.52 351.25 349.56 313.33 297.48 299.22 313.59 306.38 340.67 337.3 356.52" style="fill:#263238"></polygon><circle cx="353.46" cy="308.68" r="42.86" transform="translate(-40.39 53.54) rotate(-8.2)" style="fill:#e0e0e0"></circle><path d="M381.05,321s.05-.16.16-.47l.49-1.35.38-1c.12-.37.21-.79.33-1.23a22.3,22.3,0,0,0,.7-3.11,29.22,29.22,0,0,0,.21-8.71,30.4,30.4,0,0,0-3.52-10.93,30,30,0,0,0-9.28-10.3,27,27,0,0,0-3.3-1.95c-.58-.29-1.15-.61-1.76-.87l-1.86-.72c-.31-.12-.62-.26-.94-.35l-1-.27c-.66-.17-1.31-.38-2-.53a33,33,0,0,0-4.14-.56,32.15,32.15,0,0,0-4.28,0c-.72.05-1.44.17-2.17.26a14.41,14.41,0,0,0-2.16.4,33.39,33.39,0,0,0-4.3,1.25,34.46,34.46,0,0,0-4.11,2,29.21,29.21,0,0,0-7.31,5.81,29.83,29.83,0,0,0-7.74,17.32,29,29,0,0,0,.54,9.31,34,34,0,0,0,1.27,4.39,33.31,33.31,0,0,0,1.93,4,14.93,14.93,0,0,0,1.14,1.88c.42.6.82,1.21,1.26,1.79a31.08,31.08,0,0,0,2.87,3.17,32.33,32.33,0,0,0,3.18,2.71c.56.41,1.15.76,1.72,1.13l.85.55c.29.18.59.31.89.47l1.78.91c.59.28,1.22.49,1.82.73a27.56,27.56,0,0,0,3.65,1.16,30.29,30.29,0,0,0,24.36-4.63,29.09,29.09,0,0,0,6.35-6,21,21,0,0,0,1.85-2.6c.25-.39.5-.74.7-1.07l.49-.94c.29-.55.51-1,.68-1.27s.24-.43.24-.43-.06.15-.2.45l-.63,1.3-.47,1c-.19.34-.43.7-.68,1.1a21.41,21.41,0,0,1-1.82,2.63,28.8,28.8,0,0,1-6.34,6.07,30.52,30.52,0,0,1-24.63,4.81,28.36,28.36,0,0,1-3.71-1.16c-.61-.25-1.24-.46-1.85-.74l-1.81-.91c-.3-.16-.61-.3-.9-.48l-.87-.56c-.58-.37-1.18-.73-1.74-1.14a32.17,32.17,0,0,1-3.24-2.74,31,31,0,0,1-2.93-3.22c-.45-.59-.85-1.21-1.28-1.82a16,16,0,0,1-1.17-1.91,28.34,28.34,0,0,1-3.26-8.56,29.71,29.71,0,0,1-.56-9.48,30.28,30.28,0,0,1,7.88-17.61,29.38,29.38,0,0,1,7.44-5.9,33.41,33.41,0,0,1,4.18-2,35,35,0,0,1,4.37-1.27,15.17,15.17,0,0,1,2.2-.4c.74-.09,1.47-.21,2.2-.26a30.16,30.16,0,0,1,4.36,0,30.54,30.54,0,0,1,4.2.58c.68.15,1.35.36,2,.53l1,.28c.33.1.64.24,1,.36l1.88.73c.62.27,1.19.6,1.78.89a28.3,28.3,0,0,1,3.34,2,30.45,30.45,0,0,1,12.84,21.56,28.65,28.65,0,0,1-.29,8.77,21.4,21.4,0,0,1-.75,3.12c-.13.45-.23.86-.36,1.23l-.4,1-.54,1.34C381.13,320.81,381.05,321,381.05,321Z" style="fill:#263238"></path><circle cx="353.46" cy="308.68" r="11.84" transform="translate(-102.24 420.71) rotate(-54.94)" style="fill:#263238"></circle><path d="M361.22,312.15a8.5,8.5,0,1,1-4.29-11.23A8.51,8.51,0,0,1,361.22,312.15Z" style="fill:#FF725E"></path><path d="M379.76,293.65a2.17,2.17,0,0,1,.35-.37l1.07-1,4-3.58,0,.23a34.55,34.55,0,0,0-11.55-11.62,50.09,50.09,0,0,0-17.39-6.64l-.16,0,0-.15c.18-1.57.33-2.84.44-3.8a7.39,7.39,0,0,1,.22-1.34,8.2,8.2,0,0,1-.05,1.36c-.07,1-.17,2.24-.29,3.81l-.14-.18a45,45,0,0,1,7.95,2,46.34,46.34,0,0,1,9.68,4.56,33.71,33.71,0,0,1,11.6,11.88l.07.14-.11.09-4.12,3.45-1.14.92C379.92,293.57,379.77,293.67,379.76,293.65Z" style="fill:#263238"></path><path d="M393.52,323.37a1.53,1.53,0,0,1-.39-.13L392,322.8,388,321.06l.22-.09-1.69,4a22,22,0,0,1-1.19,2.22c-.44.75-.86,1.56-1.36,2.36a37.73,37.73,0,0,1-8.54,9.09A36.27,36.27,0,0,1,364,344.29a34,34,0,0,1-9.54,1.5h-.15v-.15c0-1.72,0-3.1-.06-4.12,0-.44,0-.8,0-1.09a1.88,1.88,0,0,1,0-.38,1.28,1.28,0,0,1,.06.37c0,.3,0,.66.07,1.09.05,1,.12,2.4.2,4.12l-.15-.15a35.5,35.5,0,0,0,9.4-1.63,36.7,36.7,0,0,0,11.26-5.67,38.17,38.17,0,0,0,8.46-8.93c.5-.78.93-1.58,1.37-2.32a21.63,21.63,0,0,0,1.2-2.18c.65-1.43,1.24-2.74,1.76-3.9l.07-.15.14.06,4,1.88,1.06.52C393.41,323.28,393.53,323.35,393.52,323.37Z" style="fill:#263238"></path><path d="M323.78,339.05a12,12,0,0,1,.85-1.14l2.49-3.11,0,.21a30.79,30.79,0,0,1-6.1-7.22,33.79,33.79,0,0,1-4.37-11.74,44.69,44.69,0,0,1-.47-11.58,45.15,45.15,0,0,1,1.62-8.93l.05-.15.15,0,4.84,1.08,1.29.31a1.71,1.71,0,0,1,.44.13,1.53,1.53,0,0,1-.45,0l-1.31-.22-4.88-.93.2-.11a47,47,0,0,0-1.48,8.87,45.5,45.5,0,0,0,.52,11.44,34.19,34.19,0,0,0,4.25,11.6,32.28,32.28,0,0,0,5.9,7.23l.12.11-.1.11-2.6,3A7.49,7.49,0,0,1,323.78,339.05Z" style="fill:#263238"></path><path d="M390.7,312.37l-1-.15c1.31-8.73-2.47-16.88-2.51-17l.9-.42A33.75,33.75,0,0,1,390.7,312.37Z" style="fill:#FF725E"></path><path d="M325.4,289.65a1.82,1.82,0,1,1-1.82-1.82A1.82,1.82,0,0,1,325.4,289.65Z" style="fill:#FF725E"></path><circle cx="327.52" cy="284.55" r="1.82" style="fill:#FF725E"></circle><path d="M334.26,280.08a1.83,1.83,0,1,1-1.83-1.82A1.82,1.82,0,0,1,334.26,280.08Z" style="fill:#FF725E"></path><path d="M240.31,344.45l66.08-40.2s-4.83,17.85,7.53,33.5c12.2,15.45,25,18.84,25,18.84l-64.07,41a58.69,58.69,0,0,0-11.4-33.27C251.48,347.93,240.31,344.45,240.31,344.45Z" style="fill:#e0e0e0"></path><path d="M318.59,343.09l-.21.16-.65.45-2.51,1.68-9.29,6.08-13.81,9-4,2.59a11.18,11.18,0,0,1-4.6,2,9.83,9.83,0,0,1-9.43-3.86,10.15,10.15,0,0,1-1.3-2.4,10.41,10.41,0,0,1-.58-2.63,9.75,9.75,0,0,1,4.34-8.89c1.38-.87,2.75-1.66,4.08-2.47l14.12-8.47,9.55-5.67,2.6-1.52.69-.38a.92.92,0,0,1,.24-.11l-.21.16-.66.43-2.56,1.6-9.46,5.81-14.06,8.56c-1.32.81-2.69,1.61-4.05,2.48a9.13,9.13,0,0,0-3.16,3.58,9.28,9.28,0,0,0,9.77,13.28,10.81,10.81,0,0,0,4.42-1.92l4-2.57,13.87-8.87,9.38-5.94,2.56-1.6.68-.4Q318.58,343.08,318.59,343.09Z" style="fill:#fff"></path><path d="M293,386a3.73,3.73,0,0,1,.19-.91c.18-.65.41-1.49.69-2.53l2.57-9,0-.08.07,0,11-7.3c6-4,11.47-7.54,15.43-10.11,1.94-1.24,3.54-2.25,4.71-3l1.3-.79a1.78,1.78,0,0,1,.47-.25,2.08,2.08,0,0,1-.41.33l-1.25.88-4.62,3.15c-3.91,2.64-9.34,6.26-15.35,10.23l-11,7.24.09-.12c-1.12,3.64-2.06,6.7-2.75,8.93-.33,1-.6,1.86-.8,2.5A6.56,6.56,0,0,1,293,386Z" style="fill:#263238"></path><path d="M250.05,350.19a11.72,11.72,0,0,1,1.42-1l4-2.62c3.38-2.19,8.07-5.2,13.27-8.48l7.66-4.82-.1.14c.91-3.73,1.7-6.91,2.27-9.26l.69-2.63a6.33,6.33,0,0,1,.29-.93,4,4,0,0,1-.14,1c-.15.7-.33,1.58-.56,2.66l-2.09,9.31,0,.09-.08.06L269,338.51c-5.2,3.28-9.92,6.24-13.36,8.35-1.66,1-3,1.85-4.08,2.48A10.92,10.92,0,0,1,250.05,350.19Z" style="fill:#263238"></path><rect x="271.23" y="217.62" width="3.72" height="2.02" transform="translate(620.33 261.07) rotate(148.29)" style="fill:#e0e0e0"></rect><rect x="269.67" y="190.52" width="20.31" height="18.28" transform="translate(622.82 222.42) rotate(148.29)" style="fill:#263238"></rect><rect x="273.63" y="207.28" width="23.76" height="4.47" transform="translate(638.52 237.68) rotate(148.29)" style="fill:#263238"></rect><rect x="269.11" y="211.19" width="37.2" height="4.73" transform="matrix(-0.85, 0.53, -0.53, -0.85, 644.73, 244.01)" style="fill:#263238"></rect><rect x="278.68" y="214.25" width="30.31" height="19.21" transform="translate(661.47 259.83) rotate(148.29)" style="fill:#FF725E"></rect><path d="M292.68,189.39c1.62,4.92,6,7.81,10,10.71a23.42,23.42,0,0,1,6,5.66,13.23,13.23,0,0,1,2.06,8.62c-.07.8,1.18.8,1.25,0,.53-5.71-2.26-10.35-6.61-13.8s-9.7-6.09-11.5-11.52c-.25-.76-1.45-.44-1.2.33Z" style="fill:#263238"></path><path d="M276.31,222a22.68,22.68,0,0,1-12.21-20,.63.63,0,0,0-1.25,0,23.94,23.94,0,0,0,12.83,21.08c.71.37,1.35-.71.63-1.08Z" style="fill:#263238"></path><path d="M305.35,295l-29.49-64.66c9.83,1.69,16.74-.58,17.34-11.35L309,208.49l47.6,49.21A58.69,58.69,0,0,0,324,270.88C308.23,283.7,305.35,295,305.35,295Z" style="fill:#e0e0e0"></path><path d="M299.38,214.9a1.08,1.08,0,0,1,.19.21l.51.63,1.9,2.46,6.94,9.09,10.22,13.53c1,1.28,1.95,2.58,2.95,3.92A24.39,24.39,0,0,1,325,249a9.82,9.82,0,0,1-1.6,10.34,9.47,9.47,0,0,1-2.13,1.82,9,9,0,0,1-2.53,1.14,9.8,9.8,0,0,1-5.37,0,9.68,9.68,0,0,1-4.43-2.7,14.78,14.78,0,0,1-1.51-2l-1.36-2-9.5-14.05-6.37-9.5-1.71-2.6-.43-.68a.88.88,0,0,1-.13-.24,1.15,1.15,0,0,1,.17.21c.13.17.28.39.48.65l1.79,2.55,6.5,9.4,9.59,14,1.37,2a13,13,0,0,0,1.48,1.95,9.22,9.22,0,0,0,9.29,2.53A9.34,9.34,0,0,0,323,259a9.33,9.33,0,0,0,1.53-9.79,25,25,0,0,0-2.83-4.18l-2.93-3.92-10.14-13.6-6.8-9.19L300,215.8l-.46-.66Z" style="fill:#fff"></path><path d="M344.33,245a5.06,5.06,0,0,1-1.08-.14l-3-.55-10.56-2.07-.09,0-.05-.07c-2.17-2.91-4.65-6.25-7.29-9.78L310.93,217l-3.39-4.71-.9-1.29a2.73,2.73,0,0,1-.29-.48s.14.13.37.41l1,1.24,3.53,4.61c3,4,7,9.38,11.46,15.34l7.24,9.81-.14-.08,10.53,2.25,3,.67A7.74,7.74,0,0,1,344.33,245Z" style="fill:#263238"></path><path d="M314.6,280.18s-.23-.21-.59-.66-.86-1.11-1.48-1.94c-1.23-1.66-2.93-4-4.83-6.65l.17.11-1.74-.31c-3.61-.65-6.88-1.26-9.24-1.73-1.18-.23-2.14-.43-2.8-.58a4.24,4.24,0,0,1-1-.28,4.14,4.14,0,0,1,1.05.08c.67.09,1.63.23,2.82.42,2.38.38,5.66.93,9.27,1.58l1.74.31.1,0,.06.08c1.89,2.66,3.53,5,4.7,6.75.58.85,1,1.55,1.34,2A3.24,3.24,0,0,1,314.6,280.18Z" style="fill:#263238"></path><path d="M295.76,210.82c-.12.07-.65-.56-1.18-1.42s-.86-1.61-.74-1.69.65.56,1.18,1.42S295.88,210.74,295.76,210.82Z" style="fill:#455a64"></path><path d="M288.94,215.11c-.12.07-.71-.66-1.31-1.64s-1-1.82-.87-1.9.71.65,1.31,1.63S289.06,215,288.94,215.11Z" style="fill:#455a64"></path><path d="M281.82,219.28c-.12.07-.7-.64-1.29-1.6s-1-1.81-.86-1.88.71.64,1.3,1.6S282,219.2,281.82,219.28Z" style="fill:#455a64"></path><rect x="297.11" y="201.63" width="3.72" height="2.02" transform="translate(659.81 217.89) rotate(148.29)" style="fill:#e0e0e0"></rect><path d="M302.1,202.08a8.34,8.34,0,0,1-1.19.81l-3.32,2.05-11,6.71-10.94,6.79-3.32,2.05a6.27,6.27,0,0,1-1.25.69,8.11,8.11,0,0,1,1.14-.86c.76-.53,1.86-1.28,3.24-2.19,2.74-1.82,6.58-4.28,10.86-6.92s8.21-5,11.07-6.59c1.43-.82,2.6-1.47,3.41-1.91A8,8,0,0,1,302.1,202.08Z" style="fill:#455a64"></path><path d="M294.19,201.67a22.43,22.43,0,0,1-2.83,1.85l-6.95,4.28-6.93,4.3a22.72,22.72,0,0,1-2.92,1.7,20.7,20.7,0,0,1,2.72-2c1.73-1.18,4.15-2.76,6.86-4.43s5.21-3.14,7-4.15A20.28,20.28,0,0,1,294.19,201.67Z" style="fill:#455a64"></path><path d="M310.82,236.62h.36a2.8,2.8,0,0,1,2.8,2.8v11.19a2.81,2.81,0,0,1-2.81,2.81h-.36a2.8,2.8,0,0,1-2.8-2.8V239.43A2.8,2.8,0,0,1,310.82,236.62Z" transform="translate(-83.82 215.45) rotate(-33.95)" style="fill:#FF725E"></path><polygon points="218.59 166.53 200.99 153.15 205.67 144.84 223.79 156.93 218.59 166.53" style="fill:#263238"></polygon><polygon points="230.67 94.24 238.1 104.83 247.29 121.73 253.03 136.85 264.22 134.31 261.08 124.82 249.67 104 238.86 88.15 230.67 94.24" style="fill:#263238"></polygon><path d="M223.79,121.68s15,23.32,15.4,23.09,12.06-6.83,12.06-6.83l-18.42-22.79Z" style="fill:#263238"></path><polygon points="208.36 135.21 227.33 154.57 237.38 145.62 215.5 126.83 200.94 115.15 193.59 123.9 208.36 135.21" style="fill:#263238"></polygon><path d="M281.72,156.74c-3.26-.22-6.38-7.63-7.9-10.52-1.74-3.31-3.6-7.74-5.59-10.29l-14.49,5.21a105,105,0,0,0-30.11,24.19,5.71,5.71,0,0,0-1.72,3.32,5.46,5.46,0,0,0,1.18,3.09,42.72,42.72,0,0,0,13.22,12.8A8.38,8.38,0,0,0,240.2,186c2,.09,3.74-1.06,5.36-2.16L270.47,167c1.69-1.15,21.37,2.55,22.31.73C294.05,165.26,293.73,157.54,281.72,156.74Z" style="fill:#263238"></path><path d="M287.61,132.27s3.42,7.39,4.28,10.07-2.87,8.42-2.87,8.42l-8-.53-1.89-6-2.49-4.24Z" style="fill:#263238"></path><path d="M294.74,194c.11-.75,0-6.15-.29-10.23s1.29-13.84,1.2-16.78c0,0-16.73-1.73-17.68-2.7s-6.22-5.39-8.58-4.79-38.34,24.37-38.71,24.6,20.33,24.63,25.71,28.64,6.36,2.56,6.36,2.56-2.81-7.31-.41-10.33,5.63-5.52,13.48-4.4,9.19,2.17,13.59-.38A11.18,11.18,0,0,0,294.74,194Z" style="fill:#e0e0e0"></path><path d="M265.82,133.05s6.12,8.79,5,12.24-13.39,9.12-26.31,18.59c-10,7.32-15.76,14.47-17.48,14.39s-8.39-10.07-8.76-10.77c-1.46-2.72,5.76-14.07,15.94-21.68S263.88,131.33,265.82,133.05Z" style="fill:#e0e0e0"></path><path d="M233.57,77.69c-3.3-3.12-7.62-.94-7.62-.94-2.44,1.5-3.36,4.78-1.92,7.9s5.91,11.62,6.52,11.57c4.93-1.51,8.88-3.57,11.4-6.45C242,89.77,236.27,80.23,233.57,77.69Z" style="fill:#e0e0e0"></path><path d="M243.4,93.55l-9.47,6.23a1.31,1.31,0,0,0-.4,1.84c1.81,2.73,6.46,9.73,8.24,12.43a1.52,1.52,0,0,0,1.93.5c1.45-.71,3.82-1.89,5.09-2.6,2.29-1.28,5.1-3.14,5.1-4.64s-6-10-8.42-13.4A1.54,1.54,0,0,0,243.4,93.55Z" style="fill:#e0e0e0"></path><path d="M256.43,111.64a1.45,1.45,0,0,0-1.78-.28c-3,1.51-11.23,5.79-11.28,6.64-.07,1,5.43,11.77,7.32,13.34s13.65-3.87,13.32-5.77C263.72,123.86,259,114.79,256.43,111.64Z" style="fill:#e0e0e0"></path><path d="M200.5,88.67c.42-.31,4.3-2.66,8.06-.06s9.4,7.8,9.79,9.26.82,4.22-1.21,5.58-7,5.42-8,4.88-2.7-1.72-5.82-5.78S194.89,92.86,200.5,88.67Z" style="fill:#e0e0e0"></path><path d="M218.66,99.7s2.46,1.54,2.54,2.17.94,2.35-.47,3.66a46.14,46.14,0,0,1-5.68,3.81,2.38,2.38,0,0,1-2.55.36l-2.1-1.65Z" style="fill:#263238"></path><path d="M237.35,118.74a1.89,1.89,0,0,1,2,1c.9,1.3,8.64,10.53,8.35,11.78s-12,8.49-12.72,7.89-8.6-11.75-8.24-12.94S236.84,118.75,237.35,118.74Z" style="fill:#e0e0e0"></path><path d="M220.5,130.5c.3-.07.72-.84,2,.35s9.45,8,9.65,9.81-7.09,10.1-9.13,9.34-8.06-6.76-10.14-9.5c0,0-.91-1.2-.41-2C212.86,137.88,220.5,130.5,220.5,130.5Z" style="fill:#e0e0e0"></path><path d="M217.64,127.24c-.13-.48-10.13-8.5-11.91-8.79-.78-.12-6.31,5.44-6.63,7.28a5.72,5.72,0,0,0,1.49,5.24c1.6,1.89,7.52,6.73,9.26,5.75s6.57-5.78,6.57-5.78S218.18,129.18,217.64,127.24Z" style="fill:#e0e0e0"></path><path d="M193,109.7c-3.36-1.15-6.65-.23-8,2.63s.78,6.49,2.36,8.32,5.51,5,7.8,4.88c2.41-1.29,5.89-5.47,7.34-8.81A1.45,1.45,0,0,0,202,115,50.73,50.73,0,0,0,193,109.7Z" style="fill:#e0e0e0"></path><path d="M195.84,140.06l.4-.24s8.13,2.63,9.73,4.3-.12,4.22-.44,5-2.85,5.47-4.37,5.47A12.27,12.27,0,0,1,194.6,152a24.86,24.86,0,0,1-2.39-2.11Z" style="fill:#e0e0e0"></path><path d="M209.51,146.53a2.48,2.48,0,0,1,1.34-.27c.56.13,9.76,6.25,10.4,7.44s-.11,2.91-.94,4.55-4.31,6.36-5.71,6.18-9.26-6.2-10.07-7.3a2.9,2.9,0,0,1-.54-2.23Z" style="fill:#e0e0e0"></path><path d="M275.6,116.17a6.94,6.94,0,0,1,3.52,2.09c1.51,1.7,10.24,15.53,10.24,15.53s0,2.37-4.32,5.16c-1.79,1.16-7.65,3.22-7.65,3.22s-3.19-4.23-5.3-7.82-3.8-9.95-2.32-13.47S274.06,115.87,275.6,116.17Z" style="fill:#e0e0e0"></path><path d="M291.1,137.68s-2.68,3.15-4.39,3.83-8,2.58-8,2.58l.59,8.65s-1.7,5.86-1.52,6.29,15.2,5.55,16,4.68,1.88-9.71,1.75-12.65S291.1,137.68,291.1,137.68Z" style="fill:#e0e0e0"></path><path d="M221.23,102.52a1.7,1.7,0,0,1,2.27.14c2.59,2.64,9,9.26,9.62,10.19.73,1.18,1.4,2.57-.53,4.47s-6.54,6.06-8.51,5.88-11.56-9.65-11.58-11.77c0-2.43,4.94-5.81,4.94-5.81A36.38,36.38,0,0,1,221.23,102.52Z" style="fill:#e0e0e0"></path><g style="opacity:0.30000000000000004"><path d="M193.91,151.88a8.08,8.08,0,0,0,6-3.19,5.08,5.08,0,0,0,1.15-3.17,5,5,0,0,0-1.5-3.2,14.65,14.65,0,0,0-2.88-2.18"></path></g><path d="M195.78,139.61c1.77.57,4.58,4.36,3.89,6.3s-5.07,5.88-7,6.42-5.12-1.39-6.79-2.72-1.48-3.61-.11-5.23S193.64,138.91,195.78,139.61Z" style="fill:#e0e0e0"></path><g style="opacity:0.30000000000000004"><path d="M189.75,141.47a2.45,2.45,0,0,1,1.59,1,4,4,0,0,1,.89,1.85,4.36,4.36,0,0,1-.22,2.5,5.41,5.41,0,0,1-3.2,3.08,2.93,2.93,0,0,1-1.83.21c0-.09.7-.1,1.69-.55a5.51,5.51,0,0,0,2.85-2.93,4.11,4.11,0,0,0-.47-3.93C190.4,141.8,189.71,141.56,189.75,141.47Z"></path></g><g style="opacity:0.30000000000000004"><path d="M197.09,149a7,7,0,0,1-6-1.47c.08-.13,1.3.53,2.94.92S197.08,148.88,197.09,149Z"></path></g><g style="opacity:0.30000000000000004"><path d="M203.84,151.28a10.74,10.74,0,0,1-6-2.71,20.78,20.78,0,0,1,3,1.36A22.19,22.19,0,0,1,203.84,151.28Z"></path></g><g style="opacity:0.30000000000000004"><path d="M217.85,160.83a7.54,7.54,0,0,1-2-.89,37.39,37.39,0,0,1-4.44-2.83,36.53,36.53,0,0,1-4-3.44A7.6,7.6,0,0,1,206,152c.12-.11,2.46,2.24,5.74,4.67S217.92,160.69,217.85,160.83Z"></path></g><g style="opacity:0.30000000000000004"><path d="M194.28,110.57a4.34,4.34,0,0,1-.36,1.78,11.35,11.35,0,0,1-2.23,3.77,11.21,11.21,0,0,1-3.48,2.67,4.45,4.45,0,0,1-1.72.57,18.4,18.4,0,0,0,4.81-3.58A18.58,18.58,0,0,0,194.28,110.57Z"></path></g><g style="opacity:0.30000000000000004"><path d="M198.21,122.57a14.47,14.47,0,0,1-3.79-2.68,14.22,14.22,0,0,1-3.14-3.42,36.81,36.81,0,0,1,3.48,3A39.3,39.3,0,0,1,198.21,122.57Z"></path></g><g style="opacity:0.30000000000000004"><path d="M212.52,133.46a8.56,8.56,0,0,1-2-1.07,38.29,38.29,0,0,1-4.4-3.27,36.39,36.39,0,0,1-3.89-3.85,8.46,8.46,0,0,1-1.36-1.82c.12-.11,2.36,2.52,5.59,5.28S212.61,133.32,212.52,133.46Z"></path></g><g style="opacity:0.30000000000000004"><path d="M225.9,147a8.3,8.3,0,0,1-1.88-1.25,35,35,0,0,1-7.4-8,8.1,8.1,0,0,1-1.12-2c.14-.08,2,2.8,4.89,5.88S226,146.89,225.9,147Z"></path></g><g style="opacity:0.30000000000000004"><path d="M208.82,89.32a4.42,4.42,0,0,1-.57,1.77,10.37,10.37,0,0,1-6.9,5.45,4.2,4.2,0,0,1-1.86.13c0-.08.7-.16,1.77-.49a11.85,11.85,0,0,0,6.67-5.26A11.82,11.82,0,0,1,208.82,89.32Z"></path></g><g style="opacity:0.30000000000000004"><path d="M214.27,104.67a32.35,32.35,0,0,1-5-4.51A32.52,32.52,0,0,1,205,95a63.26,63.26,0,0,1,4.72,4.76A64.1,64.1,0,0,1,214.27,104.67Z"></path></g><g style="opacity:0.30000000000000004"><path d="M228.86,120.07a11.52,11.52,0,0,1-2.13-1.63,48.32,48.32,0,0,1-8.49-9.71,12.32,12.32,0,0,1-1.34-2.33,16.23,16.23,0,0,1,1.64,2.11c1,1.33,2.37,3.12,4,5s3.24,3.51,4.42,4.65A17.47,17.47,0,0,1,228.86,120.07Z"></path></g><g style="opacity:0.30000000000000004"><path d="M241.71,136.58a70.36,70.36,0,0,1-5.41-6.52,70.19,70.19,0,0,1-5-6.85,69.76,69.76,0,0,1,5.41,6.53A69.43,69.43,0,0,1,241.71,136.58Z"></path></g><g style="opacity:0.30000000000000004"><path d="M257.1,130.05a10.34,10.34,0,0,1-1.43-1.9c-.82-1.22-1.91-2.92-3.06-4.84s-2.14-3.68-2.82-5a10.31,10.31,0,0,1-1-2.16,11.35,11.35,0,0,1,1.33,2l2.94,4.89L256,128A11.36,11.36,0,0,1,257.1,130.05Z"></path></g><g style="opacity:0.30000000000000004"><path d="M247.05,112a10.41,10.41,0,0,1-1.65-1.94,56.25,56.25,0,0,1-3.38-5.12,54.38,54.38,0,0,1-2.8-5.46,11.38,11.38,0,0,1-.89-2.38,13.75,13.75,0,0,1,1.22,2.22c.71,1.39,1.72,3.3,2.92,5.36s2.37,3.86,3.23,5.17A14.42,14.42,0,0,1,247.05,112Z"></path></g><g style="opacity:0.30000000000000004"><path d="M233.17,78.9a3.34,3.34,0,0,1-.55,1.68,7.43,7.43,0,0,1-7.22,3.89,3.45,3.45,0,0,1-1.71-.46c0-.08.67.09,1.73.1a8.38,8.38,0,0,0,3.93-1,8.12,8.12,0,0,0,3-2.77C232.88,79.51,233.09,78.87,233.17,78.9Z"></path></g><g style="opacity:0.30000000000000004"><path d="M235.61,94.33a36.64,36.64,0,0,1-3.2-5.34,38.15,38.15,0,0,1-2.75-5.59,36.64,36.64,0,0,1,3.2,5.34A39.42,39.42,0,0,1,235.61,94.33Z"></path></g><g style="opacity:0.30000000000000004"><path d="M280.39,120a7.14,7.14,0,0,1-1.07,1.74,19,19,0,0,1-3.34,3.66,10.09,10.09,0,0,1-4.48,2.15,4.09,4.09,0,0,1-2.06,0c0-.09.79,0,2-.35a11.18,11.18,0,0,0,4.23-2.2,24.73,24.73,0,0,0,3.37-3.48A8.9,8.9,0,0,1,280.39,120Z"></path></g><g style="opacity:0.30000000000000004"><path d="M281.19,140.24a59.55,59.55,0,0,1-4.1-6.64,58,58,0,0,1-3.65-6.9,58.42,58.42,0,0,1,4.1,6.64A58,58,0,0,1,281.19,140.24Z"></path></g><g style="opacity:0.30000000000000004"><path d="M283.46,160.31a16.54,16.54,0,0,1,.1-2.49,53.18,53.18,0,0,0,0-6,51.44,51.44,0,0,0-.73-5.93,15.39,15.39,0,0,1-.4-2.46,9.32,9.32,0,0,1,.76,2.38,34.7,34.7,0,0,1,.73,12A9.17,9.17,0,0,1,283.46,160.31Z"></path></g><g style="opacity:0.30000000000000004"><path d="M236.49,162.7a8.61,8.61,0,0,1,0-2.17c.08-1.34.25-3.18.52-5.2s.58-3.85.85-5.16a8.8,8.8,0,0,1,.54-2.1c.15,0-.34,3.29-.87,7.33S236.63,162.71,236.49,162.7Z"></path></g><g style="opacity:0.30000000000000004"><path d="M240.65,158a27.7,27.7,0,0,1,.39-5.33,27.52,27.52,0,0,1,.92-5.28,28.3,28.3,0,0,1-.4,5.34A27.81,27.81,0,0,1,240.65,158Z"></path></g><g style="opacity:0.30000000000000004"><path d="M263.59,201.8a1.37,1.37,0,0,1-.16-.37c-.09-.25-.23-.61-.37-1.09a28.79,28.79,0,0,1-.92-4.16A32.55,32.55,0,0,1,269.82,170a29.56,29.56,0,0,1,3-3c.37-.33.69-.56.9-.72s.32-.24.34-.22a13.11,13.11,0,0,1-1.11,1.09,39.26,39.26,0,0,0-2.87,3.09,33.72,33.72,0,0,0-7.59,25.9,35.93,35.93,0,0,0,.75,4.15A10.33,10.33,0,0,1,263.59,201.8Z"></path></g><rect x="212.12" y="148.59" width="1.01" height="3.68" rx="0.47" transform="translate(-34.65 232.25) rotate(-53.59)" style="fill:#FF725E"></rect><rect x="222.89" y="133.02" width="1.01" height="3.68" rx="0.47" transform="translate(-26.61 209.61) rotate(-47.76)" style="fill:#FF725E"></rect><rect x="239.04" y="121.61" width="1.01" height="3.68" rx="0.47" transform="translate(-23.85 180.41) rotate(-39.47)" style="fill:#FF725E"></rect><rect x="213.59" y="94.04" width="1.01" height="3.68" rx="0.47" transform="translate(-3.78 182.82) rotate(-45.88)" style="fill:#FF725E"></rect><rect x="255.83" y="114.33" width="1.01" height="3.68" rx="0.47" transform="matrix(0.87, -0.5, 0.5, 0.87, -23.75, 143.64)" style="fill:#FF725E"></rect><path d="M247.05,99.09a.61.61,0,0,1-.61.61.61.61,0,1,1,.61-.61Z" style="fill:#FF725E"></path><path d="M248.26,100.66a.61.61,0,0,1-.61.61.61.61,0,0,1,0-1.22A.61.61,0,0,1,248.26,100.66Z" style="fill:#FF725E"></path><path d="M212.33,93.45a.61.61,0,1,1-.67-.53A.61.61,0,0,1,212.33,93.45Z" style="fill:#FF725E"></path><path d="M197.48,114.71a.62.62,0,0,1-.61.61.61.61,0,0,1-.61-.61.61.61,0,0,1,.61-.61A.61.61,0,0,1,197.48,114.71Z" style="fill:#FF725E"></path><path d="M274.79,149.55a3.11,3.11,0,0,1-.45.32l-1.35.85-5,3.08c-4.17,2.62-9.88,6.34-16,10.69s-11.51,8.54-15.35,11.62l-4.54,3.68-1.24,1a2.78,2.78,0,0,1-.46.32,2.4,2.4,0,0,1,.39-.4l1.18-1.07c1-.92,2.54-2.22,4.43-3.8,3.79-3.16,9.15-7.39,15.29-11.76s11.89-8,16.12-10.58c2.11-1.28,3.84-2.28,5.05-3l1.39-.76A1.9,1.9,0,0,1,274.79,149.55Z" style="fill:#455a64"></path><path d="M288.56,343.17h.36a2.81,2.81,0,0,1,2.81,2.81v11.19a2.81,2.81,0,0,1-2.81,2.81h-.36a2.8,2.8,0,0,1-2.8-2.8V346a2.8,2.8,0,0,1,2.8-2.8Z" transform="matrix(-0.56, -0.83, 0.83, -0.56, 158.24, 787.39)" style="fill:#FF725E"></path></g></svg>