<svg xmlns="http://www.w3.org/2000/svg" viewBox="0 0 200 200">
  <rect width="200" height="200" fill="#0f172a" opacity="0"/>
  
  <!-- Robot head -->
  <rect x="50" y="50" width="100" height="100" rx="15" fill="#1e293b" stroke="#475569" stroke-width="2"/>
  
  <!-- Circuit board pattern -->
  <path d="M60 60 H80 M60 70 H90 M60 80 H85 M70 90 H95 M80 100 H100 M90 110 H110 M100 120 H120" 
        stroke="#8b5cf6" stroke-width="2" stroke-linecap="round" opacity="0.7"/>
        
  <!-- Neural network nodes -->
  <circle cx="70" cy="70" r="4" fill="#06b6d4"/>
  <circle cx="130" cy="70" r="4" fill="#06b6d4"/>
  <circle cx="70" cy="130" r="4" fill="#06b6d4"/>
  <circle cx="130" cy="130" r="4" fill="#06b6d4"/>
  <circle cx="100" cy="100" r="6" fill="#ec4899"/>
  
  <!-- Connections -->
  <line x1="70" y1="70" x2="130" y2="70" stroke="#8b5cf6" stroke-width="1" opacity="0.5"/>
  <line x1="70" y1="70" x2="100" y2="100" stroke="#8b5cf6" stroke-width="1" opacity="0.5"/>
  <line x1="130" y1="70" x2="100" y2="100" stroke="#8b5cf6" stroke-width="1" opacity="0.5"/>
  <line x1="70" y1="130" x2="100" y2="100" stroke="#8b5cf6" stroke-width="1" opacity="0.5"/>
  <line x1="130" y1="130" x2="100" y2="100" stroke="#8b5cf6" stroke-width="1" opacity="0.5"/>
  
  <!-- Eyes -->
  <circle cx="85" cy="80" r="6" fill="#06b6d4"/>
  <circle cx="115" cy="80" r="6" fill="#06b6d4"/>
  <circle cx="85" cy="80" r="2" fill="#ffffff"/>
  <circle cx="115" cy="80" r="2" fill="#ffffff"/>
  
  <!-- Light effect -->
  <circle cx="100" cy="65" r="15" fill="#8b5cf6" opacity="0.1"/>
</svg>